<?xml version="1.0" standalone="no"?>
<!DOCTYPE svg PUBLIC "-//W3C//DTD SVG 20010904//EN"
 "http://www.w3.org/TR/2001/REC-SVG-20010904/DTD/svg10.dtd">
<svg version="1.0" xmlns="http://www.w3.org/2000/svg"
 width="1280.000000pt" height="1280.000000pt" viewBox="0 0 1280.000000 1280.000000"
 preserveAspectRatio="xMidYMid meet">
<metadata>
Created by potrace 1.14, written by Peter Selinger 2001-2017
</metadata>
<g transform="translate(0.000000,1280.000000) scale(0.100000,-0.100000)"
fill="#000000" stroke="none">
<path d="M6400 10167 l0 -1787 420 0 420 0 133 65 c151 74 297 124 453 156
152 30 436 38 589 15 528 -78 960 -352 1263 -799 182 -270 294 -511 376 -811
75 -273 105 -482 113 -786 8 -321 -17 -570 -87 -865 -61 -259 -201 -615 -300
-760 -42 -63 -45 -69 -29 -61 8 4 3 -2 -11 -14 -14 -12 -19 -19 -12 -15 11 6
12 3 3 -14 -7 -11 -14 -21 -17 -21 -3 0 -2 6 2 13 5 8 2 8 -9 -2 -20 -16 -23
-36 -4 -25 7 4 9 3 4 -2 -5 -5 -12 -9 -16 -9 -4 0 -29 -27 -56 -60 -163 -205
-375 -377 -568 -464 -640 -287 -1336 63 -1726 869 -31 64 -72 158 -91 211
l-34 95 -81 -24 c-99 -29 -278 -66 -405 -83 -125 -17 -535 -17 -660 0 -135 18
-333 59 -416 85 l-70 23 -23 -66 c-40 -114 -125 -292 -198 -417 -264 -446
-637 -728 -1037 -783 -343 -48 -695 82 -983 362 -160 155 -259 286 -370 487
-55 99 -72 117 -27 28 48 -94 172 -296 230 -375 37 -51 617 -638 1641 -1663
l1583 -1585 0 -118 0 -117 123 0 c137 0 415 21 599 45 1676 219 3178 1204
4040 2650 216 363 368 695 503 1100 536 1609 307 3377 -622 4795 -245 373
-516 695 -853 1012 -971 914 -2252 1446 -3597 1494 l-193 7 0 -1786z m-413
-5183 c-3 -3 -12 -4 -19 -1 -8 3 -5 6 6 6 11 1 17 -2 13 -5z m90 -10 c-3 -3
-12 -4 -19 -1 -8 3 -5 6 6 6 11 1 17 -2 13 -5z m1156 -38 c10 -21 16 -43 14
-49 -2 -7 -10 6 -17 28 -7 22 -15 43 -19 47 -4 4 -38 -1 -75 -12 -163 -46
-436 -91 -540 -88 -41 1 -48 2 -21 4 196 16 419 53 555 93 36 11 70 18 75 17
6 -1 18 -19 28 -40z m-1076 28 c-3 -3 -12 -4 -19 -1 -8 3 -5 6 6 6 11 1 17 -2
13 -5z m510 0 c-3 -3 -12 -4 -19 -1 -8 3 -5 6 6 6 11 1 17 -2 13 -5z m-224
-11 c-23 -2 -64 -2 -90 0 -26 2 -7 3 42 3 50 0 71 -1 48 -3z m-726 -9 c-3 -3
-12 -4 -19 -1 -8 3 -5 6 6 6 11 1 17 -2 13 -5z m-156 -45 c-5 -13 -10 -19 -10
-12 -1 15 10 45 15 40 3 -2 0 -15 -5 -28z m236 25 c-3 -3 -12 -4 -19 -1 -8 3
-5 6 6 6 11 1 17 -2 13 -5z m40 -10 c-3 -3 -12 -4 -19 -1 -8 3 -5 6 6 6 11 1
17 -2 13 -5z m60 -10 c-3 -3 -12 -4 -19 -1 -8 3 -5 6 6 6 11 1 17 -2 13 -5z
m46 -11 c-7 -2 -19 -2 -25 0 -7 3 -2 5 12 5 14 0 19 -2 13 -5z m70 -10 c-7 -2
-21 -2 -30 0 -10 3 -4 5 12 5 17 0 24 -2 18 -5z m70 -10 c-7 -2 -21 -2 -30 0
-10 3 -4 5 12 5 17 0 24 -2 18 -5z m135 -10 c-10 -2 -28 -2 -40 0 -13 2 -5 4
17 4 22 1 32 -1 23 -4z m1091 -118 c-1 -5 -14 17 -29 50 -16 33 -29 65 -29 70
1 6 14 -17 29 -50 16 -33 29 -64 29 -70z m-836 108 c-34 -2 -93 -2 -130 0 -37
2 -9 3 62 3 72 0 102 -1 68 -3z m-947 -40 c-8 -15 -15 -25 -16 -21 0 12 23 58
27 54 3 -2 -2 -17 -11 -33z m-25 -60 c-12 -20 -14 -14 -5 12 4 9 9 14 11 11 3
-2 0 -13 -6 -23z m1864 -118 c114 -213 202 -334 354 -485 278 -277 588 -406
926 -386 61 3 124 9 140 11 l30 5 -30 -11 c-18 -7 -98 -12 -200 -12 -152 0
-180 2 -268 26 -320 85 -624 318 -839 642 -52 80 -168 285 -168 299 0 13 2 10
55 -89z m-1985 -115 c-6 -11 -13 -20 -16 -20 -2 0 0 9 6 20 6 11 13 20 16 20
2 0 0 -9 -6 -20z m4279 -136 c-135 -196 -341 -388 -515 -479 -77 -40 -69 -33
23 23 162 96 312 234 442 405 78 102 104 128 50 51z m-4399 -48 c0 -2 -8 -10
-17 -17 -16 -13 -17 -12 -4 4 13 16 21 21 21 13z m-40 -49 c0 -2 -10 -12 -22
-23 l-23 -19 19 23 c18 21 26 27 26 19z m-40 -50 c0 -1 -42 -43 -92 -92 l-93
-90 90 93 c83 85 95 97 95 89z m-195 -186 c-3 -5 -24 -24 -48 -41 l-42 -32 45
41 c46 41 56 48 45 32z m-1435 -78 c0 -7 -58 36 -66 49 -4 7 9 -1 29 -16 20
-16 37 -30 37 -33z m130 -79 c0 -2 -9 0 -20 6 -11 6 -20 13 -20 16 0 2 9 0 20
-6 11 -6 20 -13 20 -16z m1035 -24 c-3 -5 -12 -10 -18 -10 -7 0 -6 4 3 10 19
12 23 12 15 0z m4330 -17 c-40 -22 -192 -73 -213 -72 -9 0 10 9 43 18 33 10
87 30 120 43 69 29 94 35 50 11z m-5245 -13 c8 -5 11 -10 5 -10 -5 0 -17 5
-25 10 -8 5 -10 10 -5 10 6 0 17 -5 25 -10z m850 0 c-8 -5 -19 -10 -25 -10 -5
0 -3 5 5 10 8 5 20 10 25 10 6 0 3 -5 -5 -10z m-663 -16 c-3 -3 -12 -4 -19 -1
-8 3 -5 6 6 6 11 1 17 -2 13 -5z m613 -4 c-8 -5 -19 -10 -25 -10 -5 0 -3 5 5
10 8 5 20 10 25 10 6 0 3 -5 -5 -10z m-543 -6 c-3 -3 -12 -4 -19 -1 -8 3 -5 6
6 6 11 1 17 -2 13 -5z m280 0 c-3 -3 -12 -4 -19 -1 -8 3 -5 6 6 6 11 1 17 -2
13 -5z m4150 0 c-3 -3 -12 -4 -19 -1 -8 3 -5 6 6 6 11 1 17 -2 13 -5z m280 0
c-3 -3 -12 -4 -19 -1 -8 3 -5 6 6 6 11 1 17 -2 13 -5z m-4534 -11 c-23 -2 -64
-2 -90 0 -26 2 -7 3 42 3 50 0 71 -1 48 -3z m324 1 c-3 -3 -12 -4 -19 -1 -8 3
-5 6 6 6 11 1 17 -2 13 -5z m4091 -1 c-21 -2 -57 -2 -80 0 -24 2 -7 4 37 4 44
0 63 -2 43 -4z m-4675 -20 c-7 -2 -19 -2 -25 0 -7 3 -2 5 12 5 14 0 19 -2 13
-5z m514 1 c-3 -3 -12 -4 -19 -1 -8 3 -5 6 6 6 11 1 17 -2 13 -5z m-470 -10
c-3 -3 -12 -4 -19 -1 -8 3 -5 6 6 6 11 1 17 -2 13 -5z m420 0 c-3 -3 -12 -4
-19 -1 -8 3 -5 6 6 6 11 1 17 -2 13 -5z m-354 -11 c-7 -2 -21 -2 -30 0 -10 3
-4 5 12 5 17 0 24 -2 18 -5z m300 0 c-7 -2 -21 -2 -30 0 -10 3 -4 5 12 5 17 0
24 -2 18 -5z m-115 -10 c-26 -2 -71 -2 -100 0 -29 2 -8 3 47 3 55 0 79 -1 53
-3z"/>
<path d="M3900 7380 l0 -300 305 0 305 0 0 300 0 300 -305 0 -305 0 0 -300z"/>
<path d="M8495 7671 c-100 -27 -197 -107 -242 -200 -25 -49 -28 -68 -28 -151
0 -82 4 -103 27 -152 89 -190 299 -267 486 -178 227 107 278 404 100 583 -67
66 -139 98 -236 103 -42 2 -90 0 -107 -5z"/>
<path d="M7874 7089 c-200 -25 -341 -219 -305 -417 23 -123 95 -217 209 -270
49 -23 70 -27 147 -27 82 0 97 3 157 33 131 64 201 178 202 327 1 69 -3 89
-30 145 -71 149 -217 230 -380 209z"/>
<path d="M3257 7033 c-4 -3 -7 -141 -7 -305 l0 -298 305 0 305 0 -2 303 -3
302 -296 3 c-162 1 -298 -1 -302 -5z"/>
<path d="M4550 6735 l0 -305 303 0 302 0 -3 305 -3 305 -299 0 -300 0 0 -305z"/>
<path d="M3900 6085 l0 -305 305 0 305 0 0 305 0 305 -305 0 -305 0 0 -305z"/>
<path d="M5788 6254 c-61 -32 -78 -129 -32 -183 64 -77 187 -50 213 47 29 102
-86 188 -181 136z"/>
<path d="M6338 6254 c-60 -32 -78 -129 -33 -183 75 -89 215 -40 215 75 0 25
-7 56 -16 70 -34 51 -110 69 -166 38z"/>
<path d="M6883 6250 c-41 -24 -53 -48 -53 -103 0 -115 140 -164 214 -76 46 55
28 152 -34 184 -40 20 -89 19 -127 -5z"/>
</g>
</svg>
